<?xml version="1.0"?>
<svg xmlns="http://www.w3.org/2000/svg" height="512px" viewBox="-45 0 512 512" width="512px" class=""><g><path d="m209.378906 260.1875-190.625 190.625c-11.667968 11.667969-11.667968 30.761719 0 42.433594 11.671875 11.667968 30.765625 11.667968 42.433594 0l343.039062-343.035156c11.667969-11.671876 11.667969-30.765626 0-42.4375l-21.21875-21.214844-56.578124 56.578125-28.289063 28.292969-28.289063 28.289062-28.292968 28.289062zm0 0" fill="#c58965" fill-rule="evenodd" data-original="#C58965" class="active-path" style="fill:#EE6851" data-old_color="#F79F4F"/><path d="m330.585938 209.707031-276.46875 276.46875c-3.753907 3.753907-8.777344 5.820313-14.144532 5.820313-5.371094 0-10.394531-2.066406-14.148437-5.820313-3.753907-3.753906-5.820313-8.78125-5.824219-14.148437 0-5.367188 2.070312-10.390625 5.824219-14.144532l10-10c3.90625-3.90625 3.90625-10.238281 0-14.144531-3.90625-3.902343-10.238281-3.902343-14.144531 0l-10 10c-7.53125 7.535157-11.679688 17.582031-11.679688 28.289063 0 10.710937 4.148438 20.757812 11.679688 28.289062 7.535156 7.535156 17.582031 11.683594 28.292968 11.683594 10.707032 0 20.753906-4.148438 28.285156-11.683594l276.46875-276.46875c3.90625-3.902344 3.90625-10.234375 0-14.140625-3.902343-3.90625-10.234374-3.90625-14.140624 0zm0 0" data-original="#000000" class="" style="fill:#000000" data-old_color="#F3C42E"/><path d="m411.296875 100.703125-97.777344-97.773437c-3.90625-3.90625-10.238281-3.90625-14.140625 0-3.90625 3.902343-3.90625 10.234374 0 14.140624l69.488282 69.488282-14.148438 14.144531-69.488281-69.484375c-3.90625-3.90625-10.238281-3.90625-14.140625 0-3.90625 3.902344-3.90625 10.234375 0 14.140625l69.484375 69.488281-14.144531 14.148438-69.488282-69.488282c-3.90625-3.90625-10.238281-3.90625-14.144531 0-3.90625 3.902344-3.90625 10.234376 0 14.140626l69.488281 69.488281-14.148437 14.148437-69.488281-69.488281c-3.902344-3.902344-10.234376-3.902344-14.140626 0-3.90625 3.90625-3.90625 10.238281 0 14.144531l69.488282 69.488282-14.148438 14.144531-69.488281-69.488281c-3.902344-3.902344-10.234375-3.902344-14.140625 0-3.90625 3.90625-3.90625 10.238281 0 14.144531l69.488281 69.488281-14.148437 14.144531-69.488282-69.484375c-3.90625-3.90625-10.234374-3.90625-14.140624 0-3.90625 3.902344-3.90625 10.234375 0 14.140625l69.484374 69.488281-18.035156 18.039063-69.488281-69.488281c-3.90625-3.90625-10.238281-3.90625-14.144531 0-3.902344 3.902344-3.902344 10.234375 0 14.140625l69.488281 69.488281-14.144531 14.144531-69.488282-69.488281c-3.90625-3.902344-10.238281-3.902344-14.140624 0-3.90625 3.90625-3.90625 10.238281 0 14.144531l69.484374 69.488281-88.695312 88.695313c-3.90625 3.90625-3.90625 10.238281 0 14.144531 1.953125 1.953125 4.511719 2.929688 7.070312 2.929688 2.558594 0 5.121094-.976563 7.070313-2.929688l290.617187-290.617187 14.148438 14.148437c3.753906 3.753906 5.820312 8.777344 5.820312 14.144532 0 5.367187-2.066406 10.390624-5.820312 14.144531l-10 10.003906c-3.90625 3.902344-3.90625 10.234375 0 14.140625 3.902344 3.90625 10.234375 3.90625 14.140625 0l10-10c7.53125-7.53125 11.679687-17.578125 11.679687-28.289062 0-10.710938-4.148437-20.757813-11.679687-28.289063zm0 0" data-original="#000000" class="" style="fill:#000000" data-old_color="#F3C42E"/><path d="m57.039062 422.53125c2.398438 0 4.808594-.859375 6.722657-2.601562l.007812-.003907c4.085938-3.714843 4.382813-10.039062.667969-14.125-3.714844-4.085937-10.042969-4.386719-14.128906-.671875-4.085938 3.714844-4.386719 10.039063-.671875 14.128906 1.972656 2.167969 4.683593 3.273438 7.402343 3.273438zm0 0" data-original="#000000" class="" style="fill:#000000" data-old_color="#F3C42E"/><path d="m358.867188 181.425781c-3.902344 3.902344-3.902344 10.234375 0 14.140625 1.953124 1.953125 4.511718 2.929688 7.070312 2.929688s5.121094-.976563 7.074219-2.929688l.003906-.003906c3.90625-3.90625 3.902344-10.234375-.003906-14.140625-3.902344-3.90625-10.238281-3.902344-14.144531.003906zm0 0" data-original="#000000" class="" style="fill:#000000" data-old_color="#F3C42E"/></g> </svg>
