<?xml version="1.0"?>
<svg xmlns="http://www.w3.org/2000/svg" height="512px" viewBox="0 -46 512.002 512" width="512px" class=""><g><g fill-rule="evenodd"><path d="m305.738281 256.746094-.21875-22.058594 19.003907-10.71875c-5.386719-32.988281-34.011719-58.167969-68.523438-58.167969-38.351562 0-69.441406 31.089844-69.441406 69.4375 0 38.351563 31.089844 28.246094 69.441406 28.246094 17.304688 0 33.132812 2.058594 45.292969.792969zm0 0" fill="#d675a7" data-original="#D675A7" class="" style="fill:#F3C42E" data-old_color="#D675A7"/><path d="m196.636719 130.007812c-6.527344-11.308593-20.148438-15.664062-30.421875-9.734374-10.269532 5.929687-13.304688 19.902343-6.777344 31.210937 6.527344 11.304687 20.148438 15.664063 30.417969 9.734375 10.273437-5.929688 13.308593-19.90625 6.78125-31.210938zm0 0" fill="#d675a7" data-original="#D675A7" class="" style="fill:#F3C42E" data-old_color="#D675A7"/><path d="m277.476562 114.953125c0-13.054687-9.613281-23.640625-21.476562-23.640625s-21.476562 10.585938-21.476562 23.640625 9.613281 23.640625 21.476562 23.640625 21.476562-10.585938 21.476562-23.640625zm0 0" fill="#d675a7" data-original="#D675A7" class="" style="fill:#F3C42E" data-old_color="#D675A7"/><path d="m345.773438 120.289062c-10.269532-5.933593-23.890626-1.574218-30.417969 9.734376-6.527344 11.304687-3.492188 25.277343 6.777343 31.207031 10.273438 5.933593 23.894532 1.574219 30.421876-9.730469 6.527343-11.308594 3.492187-25.28125-6.78125-31.210938zm0 0" fill="#d675a7" data-original="#D675A7" class="" style="fill:#F3C42E" data-old_color="#D675A7"/><path d="m357.632812 204.855469-22.058593-.21875-10.839844 19.214843-.210937.117188-19.003907 10.71875.21875 22.058594-4.445312 7.527344-6.773438 11.46875 11.21875 18.992187-.113281 11.265625-.105469 10.792969 19.214844 10.839843 1.210937 2.148438 9.628907 17.066406 22.058593-.21875 7.855469 4.640625 11.136719 6.578125 11.136719-6.578125 7.859375-4.640625 22.058594.21875 9.625-17.066406 1.214843-2.148438 19.210938-10.839843-.21875-22.058594 11.21875-18.992187-11.21875-18.996094.21875-22.058594-19.210938-10.839844-10.839843-19.210937-22.058594.21875-18.996094-11.21875zm18.992188 38.960937c17.632812 0 31.929688 14.292969 31.929688 31.925782 0 17.632812-14.296876 31.925781-31.929688 31.925781s-31.925781-14.292969-31.925781-31.925781c0-17.632813 14.292969-31.925782 31.925781-31.925782zm0 0" fill="#ffc059" data-original="#FFC059" class="" style="fill:#F79F4F" data-old_color="#FFC059"/><path d="m408.554688 275.742188c0 17.632812-14.296876 31.925781-31.929688 31.925781s-31.925781-14.292969-31.925781-31.925781c0-17.632813 14.292969-31.925782 31.925781-31.925782s31.929688 14.292969 31.929688 31.925782zm0 0" fill="#ffd89e" data-original="#FFD89E" class=""/><path d="m335.574219 346.847656-9.628907-17.066406-9.363281 16.21875-23.960937 41.503906 25.105468 1.507813 13.855469 20.988281 33.90625-58.730469-7.855469-4.640625zm0 0" fill="#ff755b" data-original="#FF755B" class="" style="fill:#EE6851" data-old_color="#FF755B"/><path d="m387.761719 351.269531 33.910156 58.730469 13.855469-20.988281 25.105468-1.507813-23.960937-41.503906-9.363281-16.21875-9.628906 17.066406-22.058594-.21875zm0 0" fill="#ff755b" data-original="#FF755B" class="" style="fill:#EE6851" data-old_color="#FF755B"/><path d="m256 263.484375c-38.351562 0-69.4375 10.105469-69.4375-28.246094 0-38.347656 31.085938-69.4375 69.4375-69.4375 34.511719 0 63.136719 25.179688 68.523438 58.167969l.210937-.117188 10.839844-19.214843 22.058593.21875 18.992188-11.21875 18.996094 11.21875 22.058594-.21875 10.839843 19.210937 19.214844 10.839844-.21875 22.058594 11.21875 18.996094 3.265625.257812v-196c-16.570312 0-30-13.429688-30-30h-352c0 16.570312-13.429688 30-30 30v196c16.570312 0 30 13.433594 30 30h225.628906l.109375-11.265625-11.21875-18.992187 6.773438-11.46875c-12.160157 1.269531-27.984375-.789063-45.292969-.789063zm66.140625-102.261719c-10.273437-5.929687-13.308594-19.902344-6.78125-31.210937 6.527344-11.308594 20.144531-15.664063 30.417969-9.734375 10.273437 5.929687 13.308594 19.902344 6.78125 31.210937-6.527344 11.308594-20.148438 15.667969-30.417969 9.734375zm-132.28125 0c-10.269531 5.933594-23.890625 1.574219-30.417969-9.734375-6.527344-11.308593-3.492187-25.28125 6.777344-31.210937 10.273438-5.929688 23.894531-1.574219 30.421875 9.734375 6.527344 11.308593 3.492187 25.28125-6.78125 31.210937zm66.140625-22.628906c-11.863281 0-21.476562-10.585938-21.476562-23.640625s9.613281-23.640625 21.476562-23.640625 21.476562 10.585938 21.476562 23.640625-9.613281 23.640625-21.476562 23.640625zm0 0" fill="#eef2f2" data-original="#EEF2F2" class="active-path" style="fill:#FCEFE6" data-old_color="#EEF2F2"/><path d="m80 50h352c0 16.570312 13.433594 30 30 30v196l-3.265625-.257812-11.21875 18.992187.21875 22.058594-19.214844 10.839843-1.210937 2.148438 9.363281 16.21875h45.328125c11 0 20-9 20-20v-296c0-11-9-20-20-20h-452c-11 0-20 9-20 20v296c0 11 9 20 20 20h286.582031l9.363281-16.21875-1.210937-2.148438-19.214844-10.839843.105469-10.792969h-225.625c0-16.570312-13.429688-30-30-30v-196c16.570312 0 30-13.429688 30-30zm0 0" fill="#d1ddde" data-original="#D1DDDE" class="" style="fill:#DBDBDB" data-old_color="#D1DDDE"/></g><path d="m482 0h-362.003906c-5.523438 0-10 4.476562-10 10s4.476562 10 10 10h362.003906c5.515625 0 10 4.488281 10 10v296c0 5.515625-4.484375 10-10 10h-39.554688l-2.066406-3.574219 12.265625-6.921875c3.175781-1.789062 5.125-5.164062 5.085938-8.808594l-.1875-19.273437 6.933593-11.742187c1.59375-.410157 3.078126-1.199219 4.3125-2.335938 2.046876-1.894531 3.210938-4.554688 3.210938-7.34375v-196c0-5.523438-4.476562-10-10-10-11.027344 0-20-8.972656-20-20 0-5.523438-4.476562-10-10-10h-352c-5.519531 0-10 4.476562-10 10 0 11.027344-8.972656 20-20 20-5.523438 0-10 4.476562-10 10v196c0 5.523438 4.476562 10 10 10 11.027344 0 20 8.972656 20 20 0 5.523438 4.480469 10 10 10h215.527344l-.007813.695312c-.035156 3.644532 1.914063 7.019532 5.085938 8.808594l12.265625 6.921875-2.0625 3.574219h-280.808594c-5.515625 0-10-4.484375-10-10v-296c0-5.511719 4.484375-10 10-10h9.996094c5.523437 0 10-4.476562 10-9.996094 0-5.523437-4.476563-9.99999975-10-9.99999975h-9.996094c-16.542969 0-30 13.45703175-30 29.99609375v296c0 16.542969 13.457031 30 30 30h269.261719l-15.300781 26.503906c-1.734376 3-1.789063 6.6875-.148438 9.738282 1.644531 3.050781 4.75 5.035156 8.210938 5.246093l20.113281 1.207031 11.101562 16.8125c1.855469 2.8125 4.992188 4.492188 8.34375 4.492188.101563 0 .199219 0 .300781-.003906 3.464844-.105469 6.628907-1.996094 8.359376-4.996094l28.859374-49.984375 2.441407 1.445313c1.566406.925781 3.324219 1.386718 5.085937 1.386718 1.757813 0 3.515625-.460937 5.085938-1.386718l2.441406-1.445313 28.855469 49.984375c1.730469 3 4.894531 4.890625 8.359375 4.996094.101562.003906.199218.003906.300781.003906 3.351563 0 6.492187-1.683594 8.34375-4.492188l11.105469-16.8125 20.113281-1.210937c3.457031-.207031 6.5625-2.191406 8.207031-5.242187 1.640625-3.050782 1.585938-6.738282-.144531-9.738282l-15.304687-26.503906h28.011718c16.539063 0 30-13.457031 30-30v-296c-.003906-16.542969-13.460937-30-30.003906-30zm-422 267.265625v-178.53125c14.035156-3.625 25.109375-14.699219 28.734375-28.734375h334.53125c3.625 14.035156 14.699219 25.109375 28.734375 28.734375v136.878906l-16.140625-9.105469-9.472656-16.785156c-1.773438-3.144531-5.101563-5.085937-8.707031-5.085937-.035157 0-.066407 0-.101563 0l-19.273437.191406-16.59375-9.804687c-3.136719-1.851563-7.035157-1.851563-10.171876 0l-16.59375 9.804687-19.273437-.191406c-3.539063-.054688-6.886719 1.847656-8.703125 4.921875-4.695312-9.328125-11.226562-17.726563-19.277344-24.636719-14.371094-12.332031-32.730468-19.121094-51.695312-19.121094-43.800782 0-79.4375 35.636719-79.4375 79.4375 0 13.421875 3.382812 23.164063 10.335937 29.78125 8.292969 7.890625 19.6875 9.667969 32.980469 9.667969 5.230469 0 10.757812-.277344 16.503906-.5625 6.328125-.316406 12.871094-.640625 19.617188-.640625 6.75 0 13.292968.324219 19.621094.640625 3.058593.152344 6.050781.296875 8.980468.402344-.261718 2.152344.171875 4.371094 1.308594 6.300781l8.960938 15.171875h-206.132813c-3.625-14.035156-14.699219-25.109375-28.734375-28.734375zm240.605469-41.285156c-3.171875 1.789062-5.121094 5.164062-5.085938 8.808593l.191407 19.273438-.339844.574219c-5.5625.167969-12.015625-.152344-18.757813-.488281-6.574219-.324219-13.371093-.664063-20.613281-.664063-7.246094 0-14.042969.339844-20.617188.667969-15.097656.75-29.359374 1.460937-34.699218-3.621094-2.734375-2.601562-4.121094-7.746094-4.121094-15.292969 0-32.773437 26.664062-59.4375 59.4375-59.4375 26.960938 0 50 17.761719 57.15625 43.097657zm30.40625 165.007812-4.941407-7.488281c-1.734374-2.625-4.605468-4.28125-7.746093-4.46875l-8.953125-.539062 16.476562-28.535157 1.015625 1.804688c1.792969 3.171875 5.195313 5.15625 8.8125 5.085937l15.136719-.148437zm31.707031-52.96875c-1.542969-.910156-3.296875-1.390625-5.085938-1.390625-.035156 0-.066406 0-.101562 0l-16.152344.160156-7.933594-14.066406c-.898437-1.589844-2.210937-2.902344-3.796874-3.796875l-14.070313-7.9375.050781-4.988281.109375-11.164062c.019531-1.824219-.460937-3.613282-1.390625-5.183594l-8.214844-13.910156 8.214844-13.910157c.929688-1.566406 1.40625-3.359375 1.390625-5.183593l-.160156-16.152344 14.070313-7.9375c.035156-.023438.066406-.050782.105468-.070313.105469-.066406.207032-.136719.308594-.203125 1.394531-.882812 2.566406-2.078125 3.378906-3.523437l7.9375-14.070313 16.152344.164063c1.8125.035156 3.617188-.464844 5.1875-1.390625l13.90625-8.214844 13.910156 8.214844c1.570313.925781 3.355469 1.421875 5.183594 1.390625l16.152344-.164063 7.9375 14.070313c.898437 1.585937 2.210937 2.898437 3.796875 3.796875l14.070312 7.9375-.160156 16.152344c-.019531 1.824218.460937 3.617187 1.386719 5.183593l8.21875 13.910157-8.21875 13.910156c-.925782 1.570312-1.40625 3.363281-1.386719 5.183594l.160156 16.152343-14.070312 7.9375c-1.585938.898438-2.898438 2.207031-3.796875 3.796875l-7.9375 14.070313-16.152344-.160157c-1.820312-.035156-3.613281.460938-5.183594 1.386719l-13.910156 8.214844zm72.210938 41.011719c-3.140626.1875-6.011719 1.84375-7.746094 4.46875l-4.941406 7.488281-19.796876-34.289062 15.136719.148437c3.640625.042969 7.015625-1.910156 8.808594-5.085937l1.019531-1.804688 16.476563 28.535157zm0 0" data-original="#000000" class="" style="fill:#000000"/><path d="m256 148.59375c17.355469 0 31.476562-15.089844 31.476562-33.640625 0-18.546875-14.121093-33.640625-31.476562-33.640625s-31.476562 15.089844-31.476562 33.640625 14.121093 33.640625 31.476562 33.640625zm0-47.28125c6.222656 0 11.476562 6.246094 11.476562 13.640625s-5.253906 13.640625-11.476562 13.640625-11.476562-6.246094-11.476562-13.640625 5.253906-13.640625 11.476562-13.640625zm0 0" data-original="#000000" class="" style="fill:#000000"/><path d="m194.859375 169.882812c15.03125-8.675781 19.714844-28.804687 10.441406-44.871093-4.402343-7.625-11.300781-13.257813-19.417969-15.855469-8.464843-2.707031-17.222656-1.835938-24.664062 2.460938-7.4375 4.296874-12.574219 11.441406-14.460938 20.128906-1.808593 8.328125-.378906 17.117187 4.023438 24.742187 6.394531 11.074219 17.773438 17.371094 29.152344 17.371094 5.128906 0 10.257812-1.28125 14.925781-3.976563zm-26.757813-23.394531c-1.910156-3.308593-2.550781-7.039062-1.796874-10.496093.671874-3.109376 2.417968-5.613282 4.917968-7.054688 1.503906-.867188 3.207032-1.308594 4.984375-1.308594 1.171875 0 2.378907.191406 3.582031.578125 3.371094 1.078125 6.28125 3.496094 8.191407 6.804688 3.761719 6.515625 2.359375 14.386719-3.121094 17.550781-5.476563 3.164062-12.996094.441406-16.757813-6.074219zm0 0" data-original="#000000" class="" style="fill:#000000"/><path d="m317.140625 169.882812c4.601563 2.660157 9.710937 4.007813 14.941406 4.007813 3.222657 0 6.492188-.511719 9.71875-1.546875 8.117188-2.597656 15.015625-8.226562 19.417969-15.851562 4.402344-7.628907 5.832031-16.417969 4.023438-24.746094-1.886719-8.683594-7.023438-15.832032-14.464844-20.128906-7.441406-4.292969-16.199219-5.167969-24.660156-2.460938-8.117188 2.597656-15.015626 8.230469-19.417969 15.855469-9.273438 16.0625-4.589844 36.195312 10.441406 44.871093zm6.878906-34.871093c1.910157-3.308594 4.820313-5.726563 8.191407-6.804688 1.203124-.386719 2.410156-.578125 3.582031-.578125 1.777343 0 3.480469.441406 4.984375 1.308594 2.5 1.441406 4.246094 3.945312 4.917968 7.054688.753907 3.457031.113282 7.1875-1.796874 10.5-1.910157 3.308593-4.820313 5.726562-8.195313 6.804687-3.023437.96875-6.066406.710937-8.5625-.730469-5.480469-3.167968-6.882813-11.039062-3.121094-17.554687zm0 0" data-original="#000000" class="" style="fill:#000000"/><path d="m418.554688 275.742188c0-5.523438-4.480469-10-10-10-5.523438 0-10 4.476562-10 10 0 12.089843-9.835938 21.925781-21.929688 21.925781-12.089844 0-21.925781-9.835938-21.925781-21.925781 0-5.523438-4.476563-10-10-10-5.523438 0-10 4.476562-10 10 0 23.117187 18.808593 41.925781 41.925781 41.925781 23.121094 0 41.929688-18.808594 41.929688-41.925781zm0 0" data-original="#000000" class="" style="fill:#000000"/><path d="m80 20c5.523438 0 10-4.476562 10-10s-4.476562-10-10-10h-.007812c-5.519532 0-9.996094 4.476562-9.996094 10s4.484375 10 10.003906 10zm0 0" data-original="#000000" class="" style="fill:#000000"/><path d="m376.625 253.816406c5.523438 0 10-4.476562 10-10 0-5.523437-4.476562-10-10-10h-.007812c-5.519532 0-9.996094 4.476563-9.996094 10 0 5.523438 4.484375 10 10.003906 10zm0 0" data-original="#000000" class="" style="fill:#000000"/></g> </svg>
