<?xml version="1.0"?>
<svg xmlns="http://www.w3.org/2000/svg" height="512px" viewBox="0 -94 512 511" width="512px" class=""><g><g fill-rule="evenodd"><path d="m50 130.5v-100h-20c-11 0-20 9-20 20v60c0 11 9 20 20 20zm0 0" fill="#dca98a" data-original="#DCA98A" class="active-path" style="fill:#EE6851" data-old_color="#F3C42E"/><path d="m50 30.5v100c0 11 9 20 20 20s20-9 20-20v-100c0-11-9-20-20-20s-20 9-20 20zm0 0" fill="#ffc059" data-original="#FFC059"/><path d="m90 30.5v100h80.003906v-30h-20c-11 0-20-9-20-20s9-20 20-20h20v-30zm0 0" fill="#dca98a" data-original="#DCA98A" class="active-path" style="fill:#EE6851" data-old_color="#F3C42E"/><path d="m130.003906 80.5c0 11 9 20 20 20h20v30c0 11 9 20 20 20s20-9 20-20v-100c0-11-9-20-20-20s-20 9-20 20v30h-20c-11 0-20 9-20 20zm0 0" fill="#ffc059" data-original="#FFC059"/><path d="m210.003906 30.5v100h271.996094c11 0 20-9 20-20v-60c0-11-9-20-20-20zm0 0" fill="#dca98a" data-original="#DCA98A" class="active-path" style="fill:#EE6851" data-old_color="#F3C42E"/><path d="m403.242188 241.5c5.800781-7.453125 9.257812-16.820312 9.257812-27 0-24.300781-19.699219-44-44-44-22.609375 0-41.234375 17.054688-43.714844 39h-137.570312c-2.480469-21.945312-21.105469-39-43.714844-39-24.300781 0-44 19.699219-44 44 0 10.179688 3.457031 19.546875 9.257812 27-5.800781 7.457031-9.257812 16.824219-9.257812 27 0 24.300781 19.699219 44 44 44 22.609375 0 41.234375-17.050781 43.714844-39h137.570312c2.480469 21.949219 21.105469 39 43.714844 39 24.300781 0 44-19.699219 44-44 0-10.175781-3.457031-19.542969-9.257812-27zm0 0" fill="#ffecd1" data-original="#FFECD1"/></g><path d="m482 20.5h-263.71875c-4.125-11.640625-15.242188-20-28.277344-20-13.039062 0-24.152344 8.359375-28.28125 20h-63.441406c-4.128906-11.640625-15.242188-20-28.28125-20-13.035156 0-24.152344 8.359375-28.277344 20h-11.722656c-16.542969 0-30 13.457031-30 30v60c0 16.542969 13.457031 30 30 30h11.722656c4.128906 11.640625 15.242188 20 28.277344 20 13.039062 0 24.152344-8.359375 28.28125-20h63.441406c4.128906 11.640625 15.246094 20 28.28125 20s24.152344-8.359375 28.28125-20h27.714844v59h-50.609375c-6.535156-22.757812-27.460937-39-51.890625-39-29.777344 0-54 24.226562-54 54 0 9.628906 2.476562 18.835938 7.21875 27-4.742188 8.167969-7.21875 17.375-7.21875 27 0 29.777344 24.222656 54 54 54 24.425781 0 45.355469-16.238281 51.890625-39h121.21875c6.535156 22.761719 27.464844 39 51.890625 39 29.773438 0 54-24.222656 54-54 0-9.625-2.476562-18.832031-7.21875-27 4.742188-8.164062 7.21875-17.371094 7.21875-27 0-29.773438-24.226562-54-54-54-24.429688 0-45.355469 16.242188-51.890625 39h-50.609375v-59h130.007812c5.523438 0 10-4.476562 10-10s-4.476562-10-10-10h-176.003906v-80h261.996094c5.515625 0 10 4.484375 10 10v60c0 5.515625-4.484375 10-10 10h-5.992188c-5.523437 0-10 4.476562-10 10s4.476563 10 10 10h5.992188c16.542969 0 30-13.457031 30-30v-60c0-16.542969-13.457031-30-30-30zm-157.214844 199c5.085938 0 9.363282-3.820312 9.9375-8.875 1.941406-17.171875 16.460938-30.125 33.777344-30.125 18.75 0 34 15.253906 34 34 0 7.636719-2.472656 14.851562-7.148438 20.859375-2.8125 3.609375-2.8125 8.671875 0 12.285156 4.675782 6.007813 7.148438 13.222657 7.148438 20.855469 0 18.75-15.25 34-34 34-17.3125 0-31.835938-12.949219-33.777344-30.125-.574218-5.054688-4.851562-8.875-9.9375-8.875h-137.570312c-5.085938 0-9.363282 3.820312-9.9375 8.875-1.941406 17.175781-16.464844 30.125-33.777344 30.125-18.75 0-34-15.25-34-34 0-7.636719 2.472656-14.847656 7.148438-20.859375 2.8125-3.609375 2.8125-8.671875 0-12.28125-4.675782-6.011719-7.148438-13.222656-7.148438-20.859375 0-18.746094 15.25-34 34-34 17.316406 0 31.835938 12.953125 33.777344 30.125.574218 5.054688 4.851562 8.875 9.9375 8.875zm-174.78125-109h10v10h-60.003906v-80h60.003906v10h-10c-16.542968 0-30 13.457031-30 30s13.457032 30 30 30zm-80.003906 30c-5.511719 0-10-4.484375-10-10v-9.996094c0-5.523437-4.476562-10-10-10-5.519531 0-9.996094 4.476563-10 9.996094h-10c-5.515625 0-10-4.484375-10-10v-60c0-5.515625 4.484375-10 10-10h10v.003906c0 5.523438 4.476562 10 10 10s10-4.476562 10-10v-10.003906c0-5.515625 4.488281-10 10-10 5.515625 0 10 4.484375 10 10v100c0 5.511719-4.484375 10-10 10zm120.003906 0c-5.515625 0-10-4.484375-10-10v-30c0-5.519531-4.476562-10-10-10h-20c-5.515625 0-10-4.484375-10-10s4.484375-10 10-10h20c5.523438 0 10-4.476562 10-10v-30c0-5.515625 4.484375-10 10-10 5.511719 0 10 4.484375 10 10v100c0 5.511719-4.484375 10-10 10zm0 0" data-original="#000000" class="" style="fill:#000000" data-old_color="#EE6851"/><path d="m246 80.496094v.007812c0 5.523438 4.476562 9.996094 10 9.996094s10-4.480469 10-10.003906c0-5.523438-4.476562-10-10-10s-10 4.476562-10 10zm0 0" data-original="#000000" class="" style="fill:#000000" data-old_color="#EE6851"/><path d="m306 80.496094v.007812c0 5.523438 4.476562 9.996094 10 9.996094s10-4.480469 10-10.003906c0-5.523438-4.476562-10-10-10s-10 4.476562-10 10zm0 0" data-original="#000000" class="" style="fill:#000000" data-old_color="#EE6851"/><path d="m366.003906 80.496094v.007812c0 5.523438 4.476563 9.996094 10 9.996094 5.523438 0 10-4.480469 10-10.003906 0-5.523438-4.476562-10-10-10-5.523437 0-10 4.476562-10 10zm0 0" data-original="#000000" class="" style="fill:#000000" data-old_color="#EE6851"/><path d="m436.007812 90.5c5.519532 0 10-4.480469 10-10.003906 0-5.523438-4.480468-10-10-10-5.523437 0-10 4.480468-10 10v.007812c0 5.523438 4.476563 9.996094 10 9.996094zm0 0" data-original="#000000" class="" style="fill:#000000" data-old_color="#EE6851"/><path d="m436.011719 120.5h-.003907c-5.523437 0-9.996093 4.476562-9.996093 10s4.476562 10 10 10c5.523437 0 10-4.476562 10-10s-4.476563-10-10-10zm0 0" data-original="#000000" class="" style="fill:#000000" data-old_color="#EE6851"/><path d="m50 70.503906c-5.523438 0-10 4.480469-10 10.003906 0 5.523438 4.476562 10 10 10s10-4.476562 10-10v-.007812c0-5.523438-4.476562-9.996094-10-9.996094zm0 0" data-original="#000000" class="" style="fill:#000000" data-old_color="#EE6851"/></g> </svg>
