<?xml version="1.0"?>
<svg xmlns="http://www.w3.org/2000/svg" height="512px" viewBox="-7 0 512 512.0009" width="512px" class=""><g><g fill-rule="evenodd"><path d="m45.039062 219.554688 204.332032-160.257813 204.328125 160.257813c9.4375 7.371093 23.066406 5.695312 30.441406-3.742188 7.371094-9.4375 5.695313-23.066406-3.742187-30.441406l-217.324219-170.449219c-7.671875-6.265625-18.917969-6.632813-27.054688-.277344l-217.679687 170.726563c-9.4375 7.375-11.113282 21.003906-3.742188 30.441406 7.375 9.441406 21.003906 11.113281 30.441406 3.742188zm0 0" fill="#ff755b" data-original="#FF755B" class="" style="fill:#F3C42E" data-old_color="#003346"/><path d="m249.371094 59.296875-204.332032 160.257813v260.679687c0 11.972656 9.796876 21.765625 21.769532 21.765625h73.722656v-110.605469c0-59.863281 48.976562-108.839843 108.839844-108.839843 59.859375 0 108.839844 48.976562 108.839844 108.839843v110.605469h73.71875c11.972656 0 21.769531-9.792969 21.769531-21.765625v-260.679687zm43.511718 134.023437c1.570313-13.882812 13.351563-24.671874 27.652344-24.671874 15.371094 0 27.832032 12.464843 27.832032 27.835937 0 6.4375-2.1875 12.363281-5.855469 17.078125 3.667969 4.714844 5.855469 10.640625 5.855469 17.078125 0 15.375-12.460938 27.835937-27.832032 27.835937-14.304687 0-26.085937-10.789062-27.652344-24.671874h-87.023437c-1.574219 13.882812-13.355469 24.671874-27.65625 24.671874-15.371094 0-27.832031-12.460937-27.832031-27.835937 0-6.4375 2.183594-12.363281 5.855468-17.078125-3.671874-4.714844-5.855468-10.640625-5.855468-17.078125 0-15.371094 12.460937-27.835937 27.832031-27.835937 14.300781 0 26.082031 10.789062 27.65625 24.671874zm0 0" fill="#d1ddde" data-original="#D1DDDE" class="" style="fill:#F79F4F" data-old_color="#EE6851"/><path d="m292.882812 193.320312h-87.023437c-1.574219-13.882812-13.355469-24.671874-27.65625-24.671874-15.371094 0-27.832031 12.464843-27.832031 27.835937 0 6.4375 2.183594 12.363281 5.855468 17.078125-3.671874 4.714844-5.855468 10.640625-5.855468 17.078125 0 15.375 12.460937 27.835937 27.832031 27.835937 14.300781 0 26.082031-10.789062 27.65625-24.671874h87.023437c1.570313 13.882812 13.351563 24.671874 27.652344 24.671874 15.371094 0 27.832032-12.460937 27.832032-27.835937 0-6.4375-2.1875-12.363281-5.855469-17.078125 3.667969-4.714844 5.855469-10.640625 5.855469-17.078125 0-15.371094-12.460938-27.835937-27.832032-27.835937-14.304687 0-26.085937 10.789062-27.652344 24.671874zm0 0" fill="#ffecd1" data-original="#FFECD1" class="" style="fill:#EE6851" data-old_color="#F79F4F"/><path d="m358.210938 391.394531c0-59.863281-48.980469-108.839843-108.839844-108.839843-59.863282 0-108.839844 48.976562-108.839844 108.839843v110.605469h217.679688zm0 0" fill="#aabfc0" data-original="#AABFC0" class="active-path" style="fill:#DBDBDB" data-old_color="#000000"/></g><path d="m498.496094 198.597656c-1.03125-8.398437-5.273438-15.894531-11.929688-21.09375l-217.253906-170.398437c-11.527344-9.34375-27.730469-9.492188-39.464844-.328125l-128.332031 100.65625c-4.347656 3.40625-5.105469 9.691406-1.699219 14.035156 3.410156 4.347656 9.695313 5.105469 14.039063 1.699219l128.320312-100.644531c4.261719-3.332032 10.390625-3.269532 14.574219.144531.050781.039062.101562.082031.152344.121093l217.339844 170.464844c2.460937 1.921875 4.023437 4.683594 4.40625 7.785156.378906 3.097657-.46875 6.160157-2.390626 8.621094-1.921874 2.457032-4.6875 4.023438-7.785156 4.402344-3.097656.382812-6.160156-.464844-8.605468-2.375l-204.328126-160.257812c-3.621093-2.84375-8.71875-2.84375-12.339843 0l-204.3125 160.246093c-2.460938 1.921875-5.527344 2.769531-8.621094 2.390625-3.097656-.382812-5.863281-1.945312-7.785156-4.40625-1.921875-2.460937-2.773438-5.523437-2.390625-8.621094.382812-3.101562 1.945312-5.863281 4.421875-7.796874l26.402343-20.707032c4.34375-3.410156 5.101563-9.695312 1.695313-14.039062-3.410156-4.34375-9.691406-5.105469-14.039063-1.695313l-26.382812 20.691407c-6.671875 5.210937-10.914062 12.707031-11.945312 21.105468-1.03125 8.402344 1.265624 16.699219 6.476562 23.371094 5.210938 6.667969 12.707031 10.910156 21.105469 11.945312 2.425781.296876 4.84375.308594 7.21875.058594v246.261719c0 17.515625 14.25 31.765625 31.765625 31.765625h365.125c17.515625 0 31.765625-14.25 31.765625-31.765625v-246.269531c1.089843.113281 2.183593.1875 3.285156.1875 1.304687 0 2.617187-.078125 3.929687-.238282 8.402344-1.035156 15.898438-5.277343 21.105469-11.945312 5.207031-6.671875 7.511719-14.96875 6.476563-23.371094zm-66.566406 293.402344h-63.722657v-5.304688c0-5.519531-4.476562-10-9.996093-10-5.523438 0-10 4.480469-10 10v5.304688h-197.683594v-100.609375c0-54.5 44.339844-98.839844 98.84375-98.839844 54.5 0 98.839844 44.339844 98.839844 98.839844v15.3125c0 5.523437 4.476562 10 9.996093 10 5.523438 0 10-4.476563 10-10v-15.3125c0-65.523437-53.308593-118.835937-118.835937-118.835937-65.53125 0-118.839844 53.308593-118.839844 118.835937v100.609375h-63.722656c-6.488282 0-11.769532-5.277344-11.769532-11.765625v-255.816406l194.332032-152.414063 194.328125 152.414063v255.816406c0 6.488281-5.277344 11.765625-11.769531 11.765625zm0 0" data-original="#000000" class="" style="fill:#000000" data-old_color="#EE6851"/><path d="m320.535156 158.652344c-16.148437 0-30.113281 10.128906-35.484375 24.667968h-71.363281c-5.371094-14.539062-19.335938-24.667968-35.484375-24.667968-20.859375 0-37.832031 16.96875-37.832031 37.832031 0 6.03125 1.386718 11.828125 4.058594 17.078125-2.671876 5.25-4.058594 11.050781-4.058594 17.082031 0 20.859375 16.972656 37.832031 37.832031 37.832031 16.144531 0 30.113281-10.132812 35.484375-24.671874h71.363281c5.371094 14.539062 19.335938 24.671874 35.484375 24.671874 20.859375 0 37.832032-16.972656 37.832032-37.832031 0-6.035156-1.386719-11.832031-4.058594-17.082031 2.667968-5.25 4.058594-11.046875 4.058594-17.078125 0-20.863281-16.96875-37.832031-37.832032-37.832031zm14.085938 61.054687c2.453125 3.148438 3.746094 6.929688 3.746094 10.9375 0 9.832031-8 17.832031-17.832032 17.832031-9.082031 0-16.699218-6.789062-17.71875-15.792968-.570312-5.058594-4.847656-8.875-9.9375-8.875h-87.023437c-5.085938 0-9.363281 3.816406-9.933594 8.871094-1.019531 9.007812-8.636719 15.796874-17.71875 15.796874-9.835937 0-17.835937-8-17.835937-17.832031 0-4.007812 1.296874-7.789062 3.75-10.941406 2.8125-3.609375 2.808593-8.671875 0-12.28125-2.453126-3.148437-3.75-6.933594-3.75-10.9375 0-9.832031 8-17.835937 17.835937-17.835937 9.082031 0 16.699219 6.792968 17.71875 15.796874.570313 5.054688 4.847656 8.875 9.933594 8.875h87.023437c5.089844 0 9.367188-3.820312 9.9375-8.875 1.019532-9.003906 8.636719-15.796874 17.71875-15.796874 9.832032 0 17.832032 8.003906 17.832032 17.835937 0 4.003906-1.292969 7.789063-3.746094 10.9375-2.8125 3.609375-2.8125 8.671875 0 12.285156zm0 0" data-original="#000000" class="" style="fill:#000000" data-old_color="#EE6851"/><path d="m76.214844 149.984375c2.398437 0 4.808594-.859375 6.722656-2.601563l.003906-.003906c4.085938-3.714844 4.386719-10.039062.671875-14.125-3.714843-4.085937-10.042969-4.382812-14.128906-.667968-4.082031 3.714843-4.386719 10.035156-.671875 14.125 1.972656 2.171874 4.683594 3.273437 7.402344 3.273437zm0 0" data-original="#000000" class="" style="fill:#000000" data-old_color="#EE6851"/><path d="m358.207031 436.703125c-5.519531 0-9.996093 4.480469-9.996093 10 0 5.523437 4.476562 10 9.996093 10 5.523438 0 10-4.476563 10-10v-.007813c0-5.519531-4.476562-9.992187-10-9.992187zm0 0" data-original="#000000" class="" style="fill:#000000" data-old_color="#EE6851"/></g> </svg>
