<?xml version="1.0"?>
<svg xmlns="http://www.w3.org/2000/svg" height="512px" viewBox="-25 1 511 511.999" width="512px" class=""><g><g fill-rule="evenodd"><path d="m98.5 144.945312c0-14.8125 1.472656-20.816406 4.558594-34.722656 6.191406-27.882812 10.527344-46.835937 17.011718-76.324218 3.808594-17.308594 11.75-23.898438 23.96875-23.898438h-57.640624c-20.367188 0-33.601563 6.589844-39.945313 23.898438-10.8125 29.488281-18.039063 48.4375-28.355469 76.324218-5.140625 13.90625-7.597656 19.914063-7.597656 34.722656v25.003907c0 24.300781 19.699219 44 44 44s44-19.699219 44-44zm0 0" fill="#d675a7" data-original="#D675A7" class="" style="fill:#F79F4F" data-old_color="#F3C42E"/><path d="m103.058594 110.222656c-3.085938 13.90625-4.558594 19.914063-4.558594 34.722656v25.003907c0 24.300781 19.699219 44 44 44s44-19.699219 44-44v-25.003907c0-14.8125.492188-20.816406 1.519531-34.722656 2.0625-27.882812 3.511719-46.835937 5.671875-76.324218 1.269532-17.308594 3.917969-23.898438 7.988282-23.898438h-57.640626c-12.21875 0-20.160156 6.589844-23.96875 23.898438-6.484374 29.488281-10.820312 48.441406-17.011718 76.324218zm0 0" fill="#cbe557" data-original="#CBE557" class="" style="fill:#EE6851" data-old_color="#F3C42E"/><path d="m193.691406 33.898438c-2.160156 29.488281-3.609375 48.4375-5.671875 76.324218-1.027343 13.90625-1.519531 19.914063-1.519531 34.722656v25.003907c0 24.300781 19.699219 44 44 44s44-19.699219 44-44v-25.003907c0-14.8125-.488281-20.816406-1.515625-34.722656-2.066406-27.882812-3.511719-46.835937-5.671875-76.324218-1.269531-17.308594-3.917969-23.898438-7.992188-23.898438h-57.640624c-4.070313 0-6.71875 6.589844-7.988282 23.898438zm0 0" fill="#d675a7" data-original="#D675A7" class="" style="fill:#F79F4F" data-old_color="#F3C42E"/><path d="m267.308594 33.898438c2.164062 29.488281 3.609375 48.4375 5.671875 76.324218 1.027343 13.90625 1.519531 19.914063 1.519531 34.722656v25.003907c0 24.300781 19.699219 44 44 44s44-19.699219 44-44v-25.003907c0-14.8125-1.472656-20.816406-4.558594-34.722656-6.1875-27.882812-10.523437-46.835937-17.011718-76.324218-3.808594-17.308594-11.746094-23.898438-23.96875-23.898438h-57.640626c4.074219 0 6.722657 6.589844 7.988282 23.898438zm0 0" fill="#cbe557" data-original="#CBE557" class="" style="fill:#EE6851" data-old_color="#F3C42E"/><path d="m340.929688 33.898438c6.488281 29.488281 10.824218 48.4375 17.011718 76.324218 3.085938 13.90625 4.558594 19.914063 4.558594 34.722656v25.003907c0 24.300781 19.699219 44 44 44s44-19.699219 44-44v-25.003907c0-14.8125-2.453125-20.816406-7.597656-34.722656-10.3125-27.882812-17.542969-46.835937-28.351563-76.324218-6.347656-17.308594-19.582031-23.898438-39.949219-23.898438h-57.640624c12.222656 0 20.160156 6.589844 23.96875 23.898438zm0 0" fill="#d675a7" data-original="#D675A7" class="" style="fill:#F79F4F" data-old_color="#F3C42E"/><path d="m362.5 169.949219c0 24.300781-19.699219 44-44 44s-44-19.699219-44-44c0 24.300781-19.699219 44-44 44s-44-19.699219-44-44c0 24.300781-19.699219 44-44 44s-44-19.699219-44-44c0 24.300781-19.699219 44-44 44v248.050781h352v-248.050781c-24.300781 0-44-19.699219-44-44zm-42.21875 107.640625c10.269531 5.929687 13.308594 19.902344 6.777344 31.207031-6.527344 11.308594-20.144532 15.667969-30.417969 9.738281-10.273437-5.933594-13.308594-19.90625-6.78125-31.214844 6.527344-11.304687 20.148437-15.664062 30.421875-9.730468zm-89.78125 45.523437c38.351562 0 69.4375 31.085938 69.4375 69.4375 0 38.347657-31.085938 28.246094-69.4375 28.246094-38.347656 0-69.4375 10.101563-69.4375-28.246094 0-38.351562 31.089844-69.4375 69.4375-69.4375zm0-74.492187c11.863281 0 21.476562 10.585937 21.476562 23.640625 0 13.058593-9.613281 23.640625-21.476562 23.640625s-21.476562-10.582032-21.476562-23.640625c0-13.054688 9.617187-23.640625 21.476562-23.640625zm-89.777344 28.96875c10.269532-5.933594 23.890625-1.574219 30.417969 9.730468 6.527344 11.308594 3.496094 25.28125-6.777344 31.214844-10.273437 5.929688-23.894531 1.570313-30.421875-9.738281-6.527344-11.304687-3.492187-25.277344 6.78125-31.207031zm0 0" fill="#ffecd1" data-original="#FFECD1" class="active-path" style="fill:#F3C42E" data-old_color="#DBDBDB"/><path d="m320.273438 277.597656c-10.273438-5.929687-23.894532-1.574218-30.421876 9.734375-6.527343 11.304688-3.492187 25.28125 6.78125 31.210938 10.269532 5.929687 23.890626 1.570312 30.417969-9.734375 6.527344-11.304688 3.492188-25.28125-6.777343-31.210938zm0 0" fill="#d675a7" data-original="#D675A7" class="" style="fill:#F79F4F" data-old_color="#F3C42E"/><path d="m251.976562 272.261719c0-13.054688-9.613281-23.640625-21.476562-23.640625-11.859375 0-21.476562 10.585937-21.476562 23.640625 0 13.058593 9.617187 23.640625 21.476562 23.640625 11.863281 0 21.476562-10.582032 21.476562-23.640625zm0 0" fill="#d675a7" data-original="#D675A7" class="" style="fill:#F79F4F" data-old_color="#F3C42E"/><path d="m171.136719 287.316406c-6.527344-11.308594-20.148438-15.664062-30.417969-9.734375-10.273438 5.929688-13.308594 19.902344-6.78125 31.210938 6.527344 11.304687 20.148438 15.664062 30.417969 9.734375 10.273437-5.933594 13.308593-19.90625 6.78125-31.210938zm0 0" fill="#d675a7" data-original="#D675A7" class="" style="fill:#F79F4F" data-old_color="#F3C42E"/><path d="m230.5 323.113281c-38.347656 0-69.4375 31.085938-69.4375 69.4375 0 38.347657 31.089844 28.246094 69.4375 28.246094 38.351562 0 69.4375 10.101563 69.4375-28.246094 0-38.351562-31.085938-69.4375-69.4375-69.4375zm0 0" fill="#d675a7" data-original="#D675A7" class="" style="fill:#F79F4F" data-old_color="#F3C42E"/><path d="m406.5 462h-376c-11 0-20 9-20 20s9 20 20 20h400c11 0 20-9 20-20s-9-20-20-20zm0 0" fill="#cbe557" data-original="#CBE557" class="" style="fill:#EE6851" data-old_color="#F3C42E"/></g><path d="m460.5 169.949219v-25.003907c0-16.015624-2.707031-23.316406-7.617188-36.570312l-.601562-1.621094c-4.289062-11.597656-8.046875-21.648437-11.746094-31.554687-5.289062-14.160157-10.289062-27.535157-16.597656-44.742188-7.511719-20.496093-23.652344-30.457031-49.335938-30.457031h-288.203124c-25.683594 0-41.820313 9.960938-49.335938 30.457031-1.898438 5.183594.761719 10.929688 5.945312 12.828125 5.1875 1.902344 10.933594-.757812 12.832032-5.945312 3.304687-9.007813 9.292968-17.339844 30.558594-17.339844h27.65625c-1.535157 3.472656-2.789063 7.382812-3.75 11.75-3.78125 17.191406-6.777344 30.546875-9.945313 44.691406-2.226563 9.925782-4.484375 19.996094-7.0625 31.613282l-.359375 1.625c-2.863281 12.859374-4.4375 19.945312-4.4375 35.265624v25.003907c0 18.746093-15.25 34-34 34-18.746094 0-34-15.253907-34-34v-25.003907c0-12.425781 1.734375-17.109374 6.371094-29.621093l.605468-1.632813c1.914063-5.179687-.730468-10.929687-5.910156-12.847656-5.179687-1.917969-10.933594.730469-12.847656 5.910156l-.601562 1.621094c-4.910157 13.253906-7.617188 20.554688-7.617188 36.570312v25.003907c0 26.355469 18.988281 48.351562 44 53.054687v228.996094h-14c-16.542969 0-30 13.457031-30 30s13.457031 30 30 30h399.996094c16.542968 0 30-13.457031 30-30s-13.457032-30-30-30h-14v-228.992188c25.015625-4.707031 44.003906-26.699218 44.003906-53.058593zm-55.339844-132.609375c6.332032 17.269531 11.339844 30.667968 16.640625 44.859375 3.691407 9.886719 7.441407 19.917969 11.722657 31.492187l.605468 1.632813c4.636719 12.511719 6.371094 17.195312 6.371094 29.621093v25.003907c0 18.746093-15.253906 34-34 34s-34-15.253907-34-34v-25.003907c0-15.316406-1.574219-22.402343-4.4375-35.265624l-.359375-1.625c-2.574219-11.601563-4.828125-21.664063-7.054687-31.578126-3.171876-14.152343-6.167969-27.523437-9.953126-44.726562-.960937-4.367188-2.214843-8.28125-3.746093-11.75h27.652343c21.269532 0 27.257813 8.335938 30.558594 17.339844zm-208.660156 107.605468c0-13.855468.433594-19.660156 1.375-32.371093l.117188-1.613281c.851562-11.476563 1.59375-21.441407 2.328124-31.25 1.046876-14.019532 2.070313-27.726563 3.34375-45.082032.589844-8.027344 1.414063-12.363281 2.027344-14.628906h49.621094c.609375 2.261719 1.4375 6.597656 2.023438 14.628906 1.257812 17.117188 2.269531 30.683594 3.304687 44.507813.746094 9.992187 1.503906 20.121093 2.367187 31.824219l.121094 1.644531c.941406 12.699219 1.371094 18.496093 1.371094 32.339843v25.003907c0 18.75-15.25 34-34 34-18.746094 0-34-15.25-34-34zm86.574219-33.820312-.121094-1.636719c-.867187-11.710937-1.621094-21.84375-2.371094-31.84375-1.03125-13.8125-2.042969-27.371093-3.296875-44.476562-.273437-3.710938-.625-8.445313-1.480468-13.167969h41.15625c4.503906 0 10.671874 0 14.203124 16.046875 3.792969 17.242187 6.792969 30.632813 9.96875 44.804687 2.222657 9.902344 4.472657 19.949219 7.046876 31.539063l.359374 1.632813c2.800782 12.589843 3.960938 17.800781 3.960938 30.921874v25.003907c0 18.75-15.253906 34-34 34-18.75 0-34-15.25-34-34v-25.003907c0-14.582031-.476562-21.011718-1.425781-33.820312zm-174.574219 33.820312c0-13.121093 1.160156-18.332031 3.960938-30.925781l.359374-1.628906c2.578126-11.605469 4.832032-21.660156 7.054688-31.574219 3.175781-14.164062 6.175781-27.539062 9.964844-44.769531 3.527344-16.046875 9.695312-16.046875 14.199218-16.046875h41.15625c-.855468 4.722656-1.207031 9.457031-1.480468 13.167969-1.269532 17.34375-2.292969 31.039062-3.339844 45.054687-.734375 9.8125-1.480469 19.78125-2.328125 31.265625l-.117187 1.605469c-.953126 12.820312-1.429688 19.257812-1.429688 33.851562v25.003907c0 18.75-15.253906 34-34 34s-34-15.25-34-34zm278 307.054688c-5.523438 0-10 4.476562-10 10s4.476562 10 10 10h44c5.515625 0 10 4.484375 10 10s-4.484375 10-10 10h-400c-5.511719 0-10-4.484375-10-10s4.488281-10 10-10h276c5.523438 0 10-4.476562 10-10s-4.476562-10-10-10h-242v-228.980469c13.964844-2.625 26.046875-10.640625 34-21.796875 9.800781 13.746094 25.871094 22.726563 44 22.726563 18.132812 0 34.203125-8.980469 44-22.726563 9.800781 13.746094 25.871094 22.726563 44 22.726563s34.203125-8.980469 44-22.726563c9.800781 13.746094 25.871094 22.726563 44 22.726563s34.199219-8.980469 44-22.726563c7.953125 11.15625 20.035156 19.171875 34 21.796875v228.980469zm0 0" data-original="#000000" class="" style="fill:#000000"/><path d="m230.5 313.113281c-43.800781 0-79.4375 35.632813-79.4375 79.4375 0 13.421875 3.382812 23.160157 10.335938 29.777344 8.292968 7.890625 19.683593 9.667969 32.980468 9.667969 5.230469 0 10.757813-.273438 16.5-.5625 6.328125-.3125 12.875-.640625 19.621094-.640625s13.292969.328125 19.621094.640625c20.351562 1.015625 37.929687 1.890625 49.484375-9.105469 6.953125-6.617187 10.332031-16.355469 10.332031-29.777344 0-43.804687-35.632812-79.4375-79.4375-79.4375zm55.320312 94.726563c-5.34375 5.082031-19.605468 4.371094-34.703124 3.621094-6.574219-.328126-13.371094-.664063-20.617188-.664063-7.242188 0-14.042969.335937-20.613281.664063-15.101563.75-29.359375 1.460937-34.703125-3.621094-2.734375-2.601563-4.121094-7.746094-4.121094-15.289063 0-32.773437 26.664062-59.4375 59.4375-59.4375 32.777344 0 59.4375 26.664063 59.4375 59.4375 0 7.542969-1.382812 12.6875-4.117188 15.289063zm0 0" data-original="#000000" class="" style="fill:#000000"/><path d="m230.5 305.902344c17.355469 0 31.476562-15.089844 31.476562-33.640625 0-18.546875-14.117187-33.640625-31.476562-33.640625-17.355469 0-31.476562 15.09375-31.476562 33.640625 0 18.550781 14.121093 33.640625 31.476562 33.640625zm0-47.28125c6.222656 0 11.480469 6.25 11.480469 13.644531 0 7.390625-5.257813 13.636719-11.480469 13.636719-6.21875 0-11.476562-6.246094-11.476562-13.636719 0-7.394531 5.257812-13.644531 11.476562-13.644531zm0 0" data-original="#000000" class="" style="fill:#000000"/><path d="m169.363281 327.195312c7.4375-4.296874 12.574219-11.445312 14.460938-20.128906 1.808593-8.328125.378906-17.117187-4.023438-24.742187-9.273437-16.066407-29.046875-22.074219-44.078125-13.398438-15.03125 8.679688-19.714844 28.808594-10.441406 44.871094 6.394531 11.074219 17.777344 17.371094 29.15625 17.371094 5.125 0 10.253906-1.277344 14.925781-3.972657zm-26.761719-23.394531c-3.757812-6.515625-2.359374-14.386719 3.121094-17.554687 5.476563-3.164063 13-.4375 16.757813 6.078125 1.914062 3.308593 2.550781 7.039062 1.800781 10.496093-.675781 3.105469-2.421875 5.613282-4.917969 7.054688-5.484375 3.164062-13 .4375-16.761719-6.074219zm0 0" data-original="#000000" class="" style="fill:#000000"/><path d="m325.28125 268.929688c-.003906 0-.003906 0 0 0-15.03125-8.679688-34.808594-2.671876-44.082031 13.394531-4.402344 7.625-5.832031 16.414062-4.023438 24.742187 1.886719 8.683594 7.023438 15.832032 14.464844 20.128906 4.605469 2.65625 9.710937 4.003907 14.941406 4.003907 3.222657 0 6.492188-.511719 9.71875-1.542969 8.121094-2.597656 15.015625-8.230469 19.417969-15.855469 9.273438-16.066406 4.59375-36.195312-10.4375-44.871093zm-6.882812 34.871093c-1.910157 3.308594-4.820313 5.726563-8.191407 6.808594-3.027343.96875-6.070312.707031-8.566406-.734375s-4.242187-3.945312-4.917969-7.054688c-.753906-3.457031-.113281-7.1875 1.796875-10.496093 2.699219-4.671875 7.328125-7.394531 11.75-7.394531 1.746094 0 3.460938.425781 5.007813 1.316406 5.484375 3.167968 6.882812 11.039062 3.121094 17.554687zm0 0" data-original="#000000" class="" style="fill:#000000"/><path d="m346.503906 452h-.007812c-5.523438 0-9.996094 4.476562-9.996094 10s4.480469 10 10.003906 10c5.523438 0 10-4.476562 10-10s-4.476562-10-10-10zm0 0" data-original="#000000" class="" style="fill:#000000"/><path d="m29.558594 81.695312c.917968.261719 1.84375.386719 2.75.386719 4.355468 0 8.355468-2.863281 9.613281-7.253906v-.007813c1.519531-5.3125-1.558594-10.84375-6.867187-12.359374-5.304688-1.519532-10.847657 1.5625-12.363282 6.871093-1.519531 5.3125 1.554688 10.84375 6.867188 12.363281zm0 0" data-original="#000000" class="" style="fill:#000000"/></g> </svg>
