<?xml version="1.0"?>
<svg xmlns="http://www.w3.org/2000/svg" height="512px" viewBox="-82 0 512 512" width="512px" class=""><g><g fill-rule="evenodd"><path d="m260.222656 266.167969c9.84375 5.683593 12.753906 19.074219 6.496094 29.910156-6.253906 10.839844-19.308594 15.015625-29.152344 9.332031s-12.753906-19.074218-6.5-29.914062c6.257813-10.835938 19.3125-15.011719 29.15625-9.328125zm34.140625-66.5625c-19.09375-27.035157-43.300781-47.484375-70.777343-58.726563-3.558594 6.238282-10.277344 10.46875-17.941407 10.46875h-62.933593c-7.660157 0-14.382813-4.230468-17.941407-10.46875-27.472656 11.242188-51.683593 31.691406-70.777343 58.726563-27.179688 38.488281-43.992188 90.996093-43.992188 148.390625 0 24.757812 3.222656 48.847656 9.113281 71.464844 6.011719 23.066406 14.738281 44.207031 25.617188 62.628906 6.296875 11.84375 18.757812 19.910156 33.105469 19.910156h192.6875v-.039062c12.671874-.011719 25.027343-6.460938 32.046874-18.109376 11.375-18.832031 20.46875-40.585937 26.671876-64.390624 5.894531-22.613282 9.113281-46.707032 9.113281-71.464844 0-57.394532-16.8125-109.902344-43.992188-148.390625zm-53.632812 176.742187c0-36.753906-29.796875-66.550781-66.550781-66.550781-36.753907 0-66.550782 29.796875-66.550782 66.550781s29.796875 27.066406 66.550782 27.066406c36.753906 0 66.550781 9.6875 66.550781-27.066406zm-152.59375-110.179687c9.84375-5.683594 22.894531-1.507813 29.152343 9.328125 6.257813 10.835937 3.347657 24.230468-6.5 29.914062-9.84375 5.683594-22.894531 1.503906-29.152343-9.332031-6.253907-10.835937-3.347657-24.226563 6.5-29.910156zm86.042969-28.859375c11.367187 0 20.582031 10.140625 20.582031 22.65625 0 12.511718-9.214844 22.65625-20.582031 22.65625-11.367188 0-20.582032-10.144532-20.582032-22.65625-.003906-12.515625 9.214844-22.65625 20.582032-22.65625zm0 0" fill="#ffd89e" data-original="#FFD89E" class="active-path" style="fill:#F3C42E" data-old_color="#F79F4F"/><path d="m240.730469 376.347656c0-36.753906-29.796875-66.550781-66.550781-66.550781-36.753907 0-66.550782 29.796875-66.550782 66.550781s29.796875 27.066406 66.550782 27.066406c36.753906 0 66.550781 9.6875 66.550781-27.066406zm0 0" fill="#d675a7" data-original="#D675A7" class="" style="fill:#F79F4F" data-old_color="#EE6851"/><path d="m117.285156 275.484375c-6.257812-10.835937-19.308594-15.011719-29.152344-9.328125s-12.753906 19.078125-6.496093 29.914062c6.257812 10.835938 19.308593 15.011719 29.152343 9.328126 9.84375-5.683594 12.753907-19.074219 6.496094-29.914063zm0 0" fill="#d675a7" data-original="#D675A7" class="" style="fill:#F79F4F" data-old_color="#EE6851"/><path d="m194.761719 259.964844c0-12.515625-9.214844-22.65625-20.582031-22.65625-11.367188 0-20.582032 10.140625-20.582032 22.65625 0 12.511718 9.214844 22.65625 20.582032 22.65625 11.367187 0 20.582031-10.144532 20.582031-22.65625zm0 0" fill="#d675a7" data-original="#D675A7" class="" style="fill:#F79F4F" data-old_color="#EE6851"/><path d="m260.214844 266.175781c-9.84375-5.683593-22.898438-1.507812-29.152344 9.328125-6.257812 10.835938-3.347656 24.226563 6.496094 29.910156 9.84375 5.683594 22.894531 1.507813 29.152344-9.328124 6.257812-10.835938 3.347656-24.226563-6.496094-29.910157zm0 0" fill="#d675a7" data-original="#D675A7" class="" style="fill:#F79F4F" data-old_color="#EE6851"/><path d="m205.648438 151.347656c7.660156 0 14.378906-4.230468 17.941406-10.46875 1.710937-3.007812 2.691406-6.476562 2.691406-10.164062v-100.078125c0-11.351563-9.285156-20.636719-20.632812-20.636719h-62.9375c-11.347657 0-20.636719 9.285156-20.636719 20.636719v100.078125c0 3.6875.984375 7.15625 2.695312 10.164062 3.558594 6.238282 10.28125 10.46875 17.941407 10.46875zm0 0" fill="#ffc059" data-original="#FFC059" class="" style="fill:#EE6851" data-old_color="#F79F4F"/></g><path d="m302.53125 193.839844c-18.390625-26.050782-41.28125-46.074219-66.617188-58.394532.238282-1.542968.367188-3.121093.367188-4.730468v-100.078125c0-16.894531-13.742188-30.636719-30.632812-30.636719h-62.9375c-16.894532 0-30.636719 13.742188-30.636719 30.636719v100.078125c0 1.609375.128906 3.1875.367187 4.734375-8.894531 4.320312-17.519531 9.59375-25.730468 15.75-4.417969 3.316406-5.3125 9.582031-2 14 1.964843 2.621093 4.96875 4 8.007812 4 2.085938 0 4.191406-.648438 5.992188-2 7.394531-5.546875 15.15625-10.253907 23.140624-14.078125 5.472657 5.101562 12.804688 8.226562 20.859376 8.226562h62.933593c8.046875 0 15.378907-3.121094 20.847657-8.214844 22.566406 10.804688 43.09375 28.722657 59.703124 52.242188 27.1875 38.5 42.160157 89.148438 42.160157 142.621094 0 23.367187-2.957031 46.5625-8.789063 68.941406-5.910156 22.675781-14.507812 43.453125-25.5625 61.753906-5 8.300782-13.785156 13.261719-23.492187 13.269532-.296875 0-.585938.015624-.875.039062h-191.800781c-10.1875 0-19.488282-5.597656-24.273438-14.605469-.074219-.132812-.144531-.261719-.222656-.394531-10.566406-17.886719-18.824219-38.09375-24.550782-60.0625-5.832031-22.382812-8.789062-45.578125-8.789062-68.941406 0-44.609375 10.332031-87.097656 29.878906-122.871094 2.648438-4.847656.867188-10.921875-3.980468-13.570312-4.847657-2.648438-10.921876-.867188-13.570313 3.980468-21.148437 38.707032-32.328125 84.511719-32.328125 132.460938 0 25.0625 3.175781 49.953125 9.4375 73.984375 6.171875 23.691406 15.113281 45.5625 26.574219 65.003906 8.300781 15.4375 24.304687 25.015625 41.824219 25.015625h192.6875c.335937 0 .671874-.015625 1-.050781 16.378906-.34375 31.132812-8.863281 39.609374-22.925781 12.042969-19.945313 21.390626-42.5 27.785157-67.042969 6.261719-24.027344 9.4375-48.917969 9.4375-73.984375 0-57.566406-16.273438-112.3125-45.824219-154.15625zm-96.882812-52.492188h-62.9375c-5.863282 0-10.636719-4.769531-10.636719-10.632812v-100.078125c0-5.867188 4.773437-10.636719 10.636719-10.636719h62.9375c5.863281 0 10.632812 4.769531 10.632812 10.636719v100.078125c0 5.863281-4.769531 10.632812-10.632812 10.632812zm0 0" data-original="#000000" class="" style="fill:#000000"/><path d="m97.628906 376.347656c0 12.980469 3.28125 22.414063 10.035156 28.839844 8.050782 7.660156 19.054688 9.378906 31.882813 9.378906 5.023437 0 10.332031-.261718 15.847656-.539062 6.058594-.300782 12.328125-.613282 18.785157-.613282 6.457031 0 12.722656.3125 18.785156.613282 19.597656.976562 36.523437 1.820312 47.730468-8.839844 6.75-6.425781 10.03125-15.859375 10.03125-28.84375 0-42.207031-34.339843-76.546875-76.546874-76.546875-42.210938 0-76.550782 34.339844-76.550782 76.550781zm76.550782-56.550781c31.179687 0 56.546874 25.367187 56.546874 56.550781 0 7.109375-1.285156 11.9375-3.820312 14.351563-4.988281 4.746093-18.566406 4.070312-32.949219 3.355469-6.304687-.316407-12.824219-.640626-19.777343-.640626-6.953126 0-13.476563.324219-19.78125.640626-14.375.714843-27.957032 1.390624-32.949219-3.355469-2.535157-2.414063-3.820313-7.242188-3.820313-14.351563 0-31.183594 25.367188-56.550781 56.550782-56.550781zm0 0" data-original="#000000" class="" style="fill:#000000"/><path d="m204.761719 259.964844c0-18.007813-13.71875-32.65625-30.582031-32.65625-16.863282 0-30.582032 14.648437-30.582032 32.65625 0 18.007812 13.71875 32.65625 30.582032 32.65625 16.863281 0 30.582031-14.648438 30.582031-32.65625zm-41.164063 0c0-6.863282 4.84375-12.65625 10.582032-12.65625 5.734374 0 10.582031 5.792968 10.582031 12.65625 0 6.859375-4.847657 12.65625-10.582031 12.65625-5.738282 0-10.582032-5.796875-10.582032-12.65625zm0 0" data-original="#000000" class="" style="fill:#000000"/><path d="m107.105469 255.113281c-8.222657-2.632812-16.738281-1.78125-23.96875 2.394531-7.234375 4.175782-12.226563 11.125-14.0625 19.5625-1.753907 8.085938-.371094 16.613282 3.902343 24.011719 4.269532 7.398438 10.964844 12.859375 18.84375 15.382813 3.136719 1.003906 6.3125 1.5 9.445313 1.5 5.082031 0 10.050781-1.3125 14.523437-3.894532 14.605469-8.433593 19.164063-27.980468 10.160157-43.574218-4.269531-7.398438-10.964844-12.863282-18.84375-15.382813zm-1.3125 41.636719c-2.289063 1.324219-5.085938 1.558594-7.875.667969-3.132813-1.003907-5.839844-3.253907-7.621094-6.335938-1.777344-3.085937-2.375-6.550781-1.675781-9.765625.621094-2.863281 2.222656-5.167968 4.515625-6.488281 1.375-.792969 2.9375-1.195313 4.570312-1.195313 1.082031 0 2.191407.175782 3.304688.53125 3.132812 1 5.839843 3.25 7.617187 6.332032 3.488282 6.042968 2.21875 13.335937-2.835937 16.253906zm0 0" data-original="#000000" class="" style="fill:#000000"/><path d="m279.28125 277.070312c-1.832031-8.4375-6.828125-15.386718-14.058594-19.5625-14.601562-8.433593-33.8125-2.605468-42.816406 12.988282-9 15.59375-4.441406 35.140625 10.160156 43.574218 4.476563 2.582032 9.441406 3.894532 14.527344 3.894532 3.128906 0 6.308594-.496094 9.441406-1.5 7.878906-2.523438 14.570313-7.984375 18.84375-15.382813 4.273438-7.398437 5.65625-15.929687 3.902344-24.011719zm-21.222656 14.011719c-1.78125 3.082031-4.484375 5.332031-7.617188 6.332031-2.792968.894532-5.585937.65625-7.875-.664062-5.054687-2.917969-6.328125-10.210938-2.839844-16.253906 2.507813-4.34375 6.804688-6.878906 10.898438-6.878906 1.601562 0 3.175781.390624 4.597656 1.210937 2.289063 1.320313 3.894532 3.625 4.515625 6.484375.695313 3.214844.101563 6.683594-1.679687 9.769531zm0 0" data-original="#000000" class="" style="fill:#000000"/><path d="m268.171875 452h-53.996094c-5.523437 0-10 4.476562-10 10s4.476563 10 10 10h53.996094c5.523437 0 10-4.476562 10-10s-4.476563-10-10-10zm0 0" data-original="#000000" class="" style="fill:#000000"/><path d="m174.171875 452c-5.523437 0-9.996094 4.476562-9.996094 10s4.480469 10 10.003907 10c5.523437 0 10-4.476562 10-10s-4.476563-10-10-10zm0 0" data-original="#000000" class="" style="fill:#000000"/><path d="m63.65625 197.007812c2.71875 0 5.429688-1.105468 7.402344-3.273437l.003906-.007813c3.714844-4.085937 3.410156-10.40625-.675781-14.121093-4.085938-3.714844-10.410157-3.410157-14.125.675781-3.714844 4.085938-3.414063 10.410156.671875 14.125 1.914062 1.742188 4.324218 2.601562 6.722656 2.601562zm0 0" data-original="#000000" class="" style="fill:#000000"/></g> </svg>
