<?xml version="1.0"?>
<svg xmlns="http://www.w3.org/2000/svg" height="512px" viewBox="0 0 512 512" width="512px" class=""><g><g fill-rule="evenodd"><path d="m153.777344 386.503906-28.285156-28.28125-101.351563 101.351563-14.140625 42.425781 42.425781-14.144531zm0 0" fill="#eef2f2" data-original="#EEF2F2"/><path d="m125.492188 358.222656 28.285156 28.28125 21.214844 21.214844c7.777343 7.777344 20.503906 7.777344 28.28125 0l98.996093-98.996094-63.636719-63.636718zm0 0" fill="#ff755b" data-original="#FF755B" class="" style="fill:#EE6851" data-old_color="#FCEFE6"/><path d="m125.492188 358.222656 113.140624-113.136718-35.355468-35.359376-98.996094 98.996094c-7.777344 7.777344-7.777344 20.507813 0 28.285156zm0 0" fill="#ff755b" data-original="#FF755B" class="" style="fill:#EE6851" data-old_color="#FCEFE6"/><path d="m238.632812 245.085938 63.636719 63.636718 113.136719-113.136718-35.355469-35.355469-28.285156-28.28125-35.355469-35.355469-113.132812 113.132812zm0 0" fill="#eef2f2" data-original="#EEF2F2"/><path d="m351.765625 131.949219 66.613281-66.613281 28.285156 28.28125-66.617187 66.617187zm0 0" fill="#d1ddde" data-original="#D1DDDE" class="active-path" style="fill:#DBDBDB" data-old_color="#D1DDDE"/><path d="m418.382812 65.332031 28.285157 28.285157 21.214843 21.210937c7.777344 7.777344 20.503907 7.777344 28.28125 0 7.78125-7.777344 7.78125-20.503906 0-28.285156l-70.710937-70.710938c-7.777344-7.777343-20.503906-7.777343-28.28125 0-7.777344 7.78125-7.777344 20.507813 0 28.285157zm0 0" fill="#d1ddde" data-original="#D1DDDE" class="active-path" style="fill:#DBDBDB" data-old_color="#D1DDDE"/></g><path d="m503.238281 79.472656-70.710937-70.710937c-5.652344-5.648438-13.183594-8.761719-21.214844-8.761719-8.027344 0-15.5625 3.113281-21.210938 8.761719-5.652343 5.652343-8.765624 13.1875-8.765624 21.214843 0 8.027344 3.113281 15.5625 8.765624 21.210938l14.140626 14.144531-52.476563 52.472657-28.28125-28.28125c-3.90625-3.90625-10.238281-3.90625-14.144531 0l-10 10c-3.90625 3.902343-3.90625 10.234374 0 14.140624s10.238281 3.90625 14.144531 0l2.929687-2.929687 28.273438 28.273437c.003906.003907.003906.007813.007812.011719.003907.003907.007813.007813.011719.007813l28.269531 28.269531c0 .003906 0 .003906.003907.003906 0 .003907.003906.003907.003906.007813l28.28125 28.277344-98.996094 98.996093-49.496093-49.496093 49.496093-49.496094c3.90625-3.90625 3.90625-10.238282 0-14.144532-.074219-.070312-.152343-.132812-.226562-.203124-.085938-.09375-.164063-.191407-.253907-.28125l-6.585937-6.585938c-3.90625-3.90625-10.238281-3.90625-14.144531 0-3.902344 3.902344-3.902344 10.234375 0 14.140625l-14.140625 14.140625c-3.90625-3.902344-10.238281-3.902344-14.140625 0-3.90625 3.90625-3.90625 10.238281-.003906 14.140625l-14.140626 14.144531-21.214843-21.214844 39.496093-39.496093c3.90625-3.902344 3.90625-10.234375 0-14.140625-3.902343-3.90625-10.234374-3.90625-14.140624 0l-46.5625 46.558594c-.003907.003906-.003907.003906-.003907.007812-.003906 0-.003906.003906-.007812.003906l-98.988281 98.992188c-5.652344 5.652344-8.765626 13.183594-8.765626 21.214844 0 8.027343 3.113282 15.5625 8.765626 21.210937l14.140624 14.144531-94.277343 94.277344c-1.101563 1.097656-1.925781 2.4375-2.417969 3.910156l-14.144531 42.429688c-1.195313 3.589844-.261719 7.554687 2.417969 10.230468 1.90625 1.90625 4.460937 2.929688 7.074218 2.929688 1.058594 0 2.125-.167969 3.160156-.515625l42.425782-14.140625c1.472656-.492188 2.8125-1.320312 3.910156-2.417969l22.394531-22.394531c3.902344-3.902344 3.902344-10.234375 0-14.140625-3.90625-3.90625-10.238281-3.90625-14.144531 0l-20.722656 20.722656-21.214844 7.074219 7.070312-21.214844 92.609376-92.609375 14.144531 14.140625-15.320313 15.320313c-3.902344 3.902343-3.902344 10.234375 0 14.140625 1.953125 1.953125 4.515625 2.929687 7.074219 2.929687s5.117187-.976562 7.070313-2.929687l15.316406-15.316406 14.144531 14.140624c5.847656 5.847657 13.527344 8.773438 21.210937 8.773438 7.683594 0 15.363282-2.925781 21.214844-8.773438l212.128906-212.128906c3.90625-3.90625 3.90625-10.238281 0-14.144531l-28.28125-28.285156 52.472657-52.472657 14.144531 14.140626c5.648438 5.652343 13.183594 8.765624 21.210938 8.765624 8.027343 0 15.5625-3.113281 21.214843-8.765624 5.648438-5.648438 8.761719-13.183594 8.761719-21.210938s-3.113281-15.5625-8.761719-21.214844zm-391.886719 250.464844c-1.875-1.875-2.90625-4.386719-2.90625-7.070312 0-2.6875 1.03125-5.199219 2.90625-7.070313l91.925782-91.925781 21.210937 21.214844-14.140625 14.140624c-3.90625-3.90625-10.234375-3.90625-14.140625 0s-3.90625 10.238282 0 14.140626l-14.144531 14.144531c-3.902344-3.90625-10.234375-3.90625-14.140625 0-3.90625 3.902343-3.90625 10.234375 0 14.140625l-14.144531 14.140625c-3.902344-3.902344-10.234375-3.902344-14.140625.003906-3.90625 3.902344-3.90625 10.234375 0 14.140625l-14.144531 14.144531zm84.851563 70.710938c-3.894531 3.898437-10.242187 3.898437-14.140625 0l-21.210938-21.214844h-.003906l-21.210937-21.210938 98.992187-98.996094 49.5 49.5zm183.847656-254.558594-14.140625-14.140625 52.476563-52.476563 14.140625 14.140625zm109.042969-38.332032c-1.871094 1.875-4.382812 2.90625-7.070312 2.90625s-5.195313-1.03125-7.070313-2.90625l-70.710937-70.710937c-3.898438-3.898437-3.898438-10.242187 0-14.140625 1.949218-1.953125 4.511718-2.925781 7.070312-2.925781 2.5625 0 5.125.976562 7.074219 2.925781l70.707031 70.710938c1.875 1.871093 2.90625 4.382812 2.90625 7.070312 0 2.683594-1.03125 5.195312-2.90625 7.070312zm0 0" data-original="#000000" class="" style="fill:#000000" data-old_color="#EE6851"/><path d="m278.125 144.878906c2.558594 0 5.117188-.976562 7.070312-2.929687l.003907-.003907c3.90625-3.90625 3.902343-10.234374 0-14.140624-3.90625-3.902344-10.238281-3.902344-14.144531.003906s-3.90625 10.238281 0 14.140625c1.953124 1.953125 4.511718 2.929687 7.070312 2.929687zm0 0" data-original="#000000" class="" style="fill:#000000" data-old_color="#EE6851"/><path d="m96.03125 430.109375c-3.90625 3.90625-3.90625 10.238281 0 14.144531 1.953125 1.953125 4.511719 2.925782 7.070312 2.925782 2.558594 0 5.117188-.976563 7.070313-2.925782l.007813-.007812c3.902343-3.902344 3.902343-10.234375-.003907-14.136719-3.90625-3.90625-10.238281-3.902344-14.144531 0zm0 0" data-original="#000000" class="" style="fill:#000000" data-old_color="#EE6851"/></g> </svg>
